<svg width="38" height="38" fill="none" xmlns="http://www.w3.org/2000/svg"><rect x="1" y="1" width="36" height="36" rx="12" stroke="#1565D8" stroke-width=".75" opacity=".2"/><path fill-rule="evenodd" clip-rule="evenodd" d="M26.703 12.935l-7.56-2.73a.42.42 0 00-.286 0l-7.56 2.73a.42.42 0 00-.277.395V19c0 4.452 2.66 7.407 7.871 8.806a.42.42 0 00.22-.001c5.21-1.436 7.869-4.39 7.869-8.805v-5.67a.42.42 0 00-.277-.395zM16.1 18.265a.42.42 0 01.593.015l1.7 1.786 3.567-3.87a.42.42 0 11.618.569l-3.872 4.2a.42.42 0 01-.613.005l-2.008-2.111a.42.42 0 01.015-.594z" fill="#1565D8"/></svg>