<svg width="42" height="41" fill="none" xmlns="http://www.w3.org/2000/svg"><g clip-path="url(#prefix__clip0)" fill="#5A7184"><rect opacity=".1" y=".404" width="42" height="40" rx="20"/><path d="M28.958 20.925c0-.5-.062-.875-.125-1.281h-7.375V22.3h4.375c-.156 1.156-1.312 3.344-4.375 3.344-2.656 0-4.812-2.188-4.812-4.906 0-4.344 5.125-6.344 7.875-3.688l2.125-2.031a7.517 7.517 0 00-5.188-2.031 7.729 7.729 0 00-7.75 7.75 7.709 7.709 0 007.75 7.75c4.469 0 7.5-3.125 7.5-7.563z"/></g><defs><clipPath id="prefix__clip0"><path fill="#fff" transform="translate(0 .404)" d="M0 0h42v40.06H0z"/></clipPath></defs></svg>