<svg width="40" height="41" fill="none" xmlns="http://www.w3.org/2000/svg"><g clip-path="url(#prefix__clip0)" fill="#5A7184"><rect opacity=".1" y=".404" width="40" height="40" rx="20"/><path d="M26.333 13.738H14.302c-.531 0-.969.468-.969 1.03v11.97c0 .562.438 1 .969 1h12.031c.532 0 1-.438 1-1v-11.97c0-.562-.468-1.03-1-1.03zm-8.781 12h-2.063V19.08h2.063v6.657zm-1.031-7.594c-.688 0-1.219-.531-1.219-1.188a1.22 1.22 0 011.219-1.218c.656 0 1.187.562 1.187 1.218 0 .657-.531 1.188-1.187 1.188zm8.812 7.594H23.24v-3.25c0-.75 0-1.75-1.063-1.75-1.094 0-1.25.843-1.25 1.718v3.282h-2.063V19.08h1.97v.907h.03c.282-.532.97-1.094 1.97-1.094 2.093 0 2.5 1.406 2.5 3.187v3.657z"/></g><defs><clipPath id="prefix__clip0"><path fill="#fff" transform="translate(0 .404)" d="M0 0h40v40.06H0z"/></clipPath></defs></svg>