<svg width="17" height="17" viewBox="0 0 17 17" fill="none" xmlns="http://www.w3.org/2000/svg">
<path d="M8.1 6.545L14.3222 0.322183C14.7518 -0.107394 15.4482 -0.107394 15.8778 0.322183C16.2767 0.721075 16.3052 1.35011 15.9633 1.78187L15.8778 1.87782L9.655 8.1L15.8778 14.3222C16.2767 14.7211 16.3052 15.3501 15.9633 15.7819L15.8778 15.8778C15.4789 16.2767 14.8499 16.3052 14.4181 15.9633L14.3222 15.8778L8.1 9.655L1.87782 15.8778C1.47892 16.2767 0.849895 16.3052 0.418125 15.9633L0.322183 15.8778C-0.0767101 15.4789 -0.105202 14.8499 0.236706 14.4181L0.322183 14.3222L6.545 8.1L0.322183 1.87782C-0.0767101 1.47892 -0.105202 0.849895 0.236706 0.418125L0.322183 0.322183C0.721075 -0.0767101 1.35011 -0.105202 1.78187 0.236706L1.87782 0.322183L8.1 6.545L14.3222 0.322183L8.1 6.545Z" fill="white"/>
</svg>
