<svg width="28" height="28" fill="none" xmlns="http://www.w3.org/2000/svg"><path d="M26 11h-9V2c0-1.063-.938-2-2-2h-2c-1.125 0-2 .938-2 2v9H2c-1.125 0-2 .938-2 2v2c0 1.125.875 2 2 2h9v9c0 1.125.875 2 2 2h2c1.063 0 2-.875 2-2v-9h9c1.063 0 2-.875 2-2v-2c0-1.063-.938-2-2-2z" fill="#fff"/><path d="M26 11h-9V2c0-1.063-.938-2-2-2h-2c-1.125 0-2 .938-2 2v9H2c-1.125 0-2 .938-2 2v2c0 1.125.875 2 2 2h9v9c0 1.125.875 2 2 2h2c1.063 0 2-.875 2-2v-9h9c1.063 0 2-.875 2-2v-2c0-1.063-.938-2-2-2z" fill="url(#prefix__paint0_linear)"/><defs><linearGradient id="prefix__paint0_linear" x1="14" y1="-5" x2="14" y2="32" gradientUnits="userSpaceOnUse"><stop stop-color="#fff"/><stop offset="1" stop-color="#fff" stop-opacity="0"/></linearGradient></defs></svg>