<svg width="38" height="38" fill="none" xmlns="http://www.w3.org/2000/svg"><rect x="1" y="1" width="36" height="36" rx="12" stroke="#1565D8" stroke-width=".75" opacity=".2"/><path fill-rule="evenodd" clip-rule="evenodd" d="M14.534 16.744c1.103-1.57 1.793-3.37 2.069-5.407a.505.505 0 01.352-.414c1.902-.588 2.982.346 2.965 2.478a19.88 19.88 0 01-.064 1.344c-.09 1.257-.083 1.6.057 1.83.136.222.575.298 1.613.1.328-.061.656-.132 1.02-.216.16-.038 1.318-.32 1.614-.384.565-.122.97-.174 1.326-.152.964.06 1.476.68 1.565 1.87.155 2.096-.326 6.306-.806 7.856-.49 1.584-1.346 2.182-3.4 2.218-1.321.024-3.352.024-6.104 0-.702-.016-1.339-.152-1.905-.406.16-.33.248-.698.248-1.087V18.31c0-.592-.206-1.136-.55-1.566z" fill="#1565D8"/><path opacity=".3" fill-rule="evenodd" clip-rule="evenodd" d="M11.525 16.798c-.842 0-1.525.677-1.525 1.512v8.064c0 .835.683 1.512 1.525 1.512h1.017c.842 0 1.525-.677 1.525-1.512V18.31c0-.835-.683-1.512-1.525-1.512h-1.017z" fill="#1565D8"/></svg>