<svg width="80" height="70" fill="none" xmlns="http://www.w3.org/2000/svg"><path d="M72.5 35H60V25c0-5.469 4.375-10 10-10h1.25c2.031 0 3.75-1.563 3.75-3.75v-7.5C75 1.719 73.281 0 71.25 0H70C56.094 0 45 11.25 45 25v37.5c0 4.219 3.281 7.5 7.5 7.5h20c4.063 0 7.5-3.281 7.5-7.5v-20c0-4.063-3.438-7.5-7.5-7.5zm-45 0H15V25c0-5.469 4.375-10 10-10h1.25c2.031 0 3.75-1.563 3.75-3.75v-7.5C30 1.719 28.281 0 26.25 0H25C11.094 0 0 11.25 0 25v37.5C0 66.719 3.281 70 7.5 70h20c4.063 0 7.5-3.281 7.5-7.5v-20c0-4.063-3.438-7.5-7.5-7.5z" fill="#FAAD13"/></svg>