<svg width="23" height="21" fill="none" xmlns="http://www.w3.org/2000/svg"><path d="M20.625 12.297l1.836-8.125C22.578 3.586 22.148 3 21.523 3H6.211l-.352-1.719C5.742.851 5.352.5 4.922.5H.938A.925.925 0 000 1.438v.625C0 2.609.39 3 .938 3h2.695l2.773 13.438a2.183 2.183 0 00-1.093 1.875c0 1.21.976 2.187 2.187 2.187 1.172 0 2.188-.977 2.188-2.188 0-.585-.274-1.132-.665-1.562h8.165c-.391.43-.625.977-.625 1.563 0 1.21.976 2.187 2.187 2.187 1.172 0 2.188-.977 2.188-2.188 0-.859-.508-1.601-1.25-1.953l.195-.937c.156-.586-.313-1.172-.899-1.172H8.516L8.242 13h11.445c.43 0 .82-.273.938-.703z" fill="#1565D8"/></svg>