<svg width="42" height="41" fill="none" xmlns="http://www.w3.org/2000/svg"><g clip-path="url(#prefix__clip0)" fill="#5A7184"><rect opacity=".1" y=".404" width="42" height="40" rx="20"/><path d="M27.677 17.488a6.948 6.948 0 001.625-1.688 6.15 6.15 0 01-1.875.5 3.206 3.206 0 001.438-1.813 6.928 6.928 0 01-2.063.813 3.281 3.281 0 00-2.406-1.031 3.28 3.28 0 00-3.282 3.281c0 .25.032.5.094.75a9.52 9.52 0 01-6.781-3.438 3.193 3.193 0 00-.438 1.657c0 1.125.563 2.125 1.47 2.719-.532-.032-1.063-.157-1.5-.407v.032a3.285 3.285 0 002.624 3.218c-.25.063-.562.125-.843.125-.22 0-.407-.031-.626-.062a3.265 3.265 0 003.063 2.281 6.597 6.597 0 01-4.063 1.406c-.28 0-.53-.031-.78-.062 1.437.937 3.155 1.469 5.03 1.469 6.032 0 9.313-4.97 9.313-9.313v-.438z"/></g><defs><clipPath id="prefix__clip0"><path fill="#fff" transform="translate(0 .404)" d="M0 0h42v40.06H0z"/></clipPath></defs></svg>